<?xml version="1.0" encoding="UTF-8" standalone="no"?>
<svg
   xmlns:dc="http://purl.org/dc/elements/1.1/"
   xmlns:cc="http://creativecommons.org/ns#"
   xmlns:rdf="http://www.w3.org/1999/02/22-rdf-syntax-ns#"
   xmlns:svg="http://www.w3.org/2000/svg"
   xmlns="http://www.w3.org/2000/svg"
   height="944.15497"
   width="938.185"
   version="1.1"
   viewBox="0 0 938.18496 944.15495"
   id="svg2">
  <defs
     id="defs4" />
  <g
     transform="translate(346.51986,-229.66998)"
     id="layer1">
    <g
       id="g3813">
      <rect
         x="31.429001"
         y="5.2192998"
         width="662.85999"
         height="865.71002"
         style="fill:#ffffff"
         id="rect3020" />
      <g
         transform="matrix(4.6865904,0,0,4.7171191,-5201.359,-3196.7038)"
         id="g3935">
        <rect
           x="1035.9"
           y="726.37"
           width="200"
           height="200"
           style="fill:#71cff5;fill-rule:evenodd"
           id="rect3010" />
        <path
           style="fill:#56b6e6"
           d="m 1115.7,896.93 49.482,29.595 70.903,-0.25 -0.3018,-117.26 -100.77,-57.488 -4.1125,139.57 z"
           id="path3013" />
        <g
           transform="translate(1854.5,694.68)"
           id="g3015">
          <path
             d="m -758.21,124.15 c 0.0698,0.0349 -0.18502,-3.3321 2.0268,-9.0714 l 4.8214,-14.304 c 0.30887,-3.151 -0.77572,-6.2884 2.3393,-6.8304 26.887,-20.133 29.775,-27.289 38.1,-18.096 2.7493,3.0361 6.9269,7.7998 11.65,14.542 -1.8261,3.19 1.9896,7.4689 1.5357,10.518 -11.117,18.16 -39.672,15.045 -60.473,23.241 z"
             style="fill:#f2f2f2"
             id="path3017" />
          <g
             transform="translate(9.2857,-1.4286)"
             id="g3019">
            <path
               style="fill:#e6a03e;fill-rule:evenodd"
               d="m -753.73,156.17 39.311,-0.38661 -5.606,47.446 -27.713,0 z"
               id="path3021" />
            <path
               style="fill:#fcc052"
               d="m -765.09,126.5 c 16.503,2.4076 32.812,4.9346 61.246,0 l 0,30.02 -12.86,3.1786 -34.258,0 -14.127,-3.1786 z"
               id="path3023" />
            <path
               d="m -703.85,126.5 c -76.142,102.81 -38.071,51.403 0,0 z"
               style="fill:#e6a03e"
               id="path3025" />
            <ellipse
               ry="15"
               rx="123.57143"
               cy="470.21933"
               cx="320.71429"
               transform="matrix(0.27845,0,0,0.27063,-823.47,0.15753)"
               style="fill:#e6a03e"
               id="path3027" />
            <path
               style="fill:#fcc052"
               d="m -764,135.38 -4.4706,-7.6204 c 3.7439,0.85555 5.6037,2.3391 7.891,3.6802 l 0.60442,1.2412 z"
               id="path3029" />
            <path
               d="m -704.13,135.38 4.4706,-7.6204 -8.0843,3.1003 -0.4111,1.8212 z"
               style="fill:#fcc052"
               id="path3031" />
            <rect
               x="-747.31"
               y="157.57001"
               width="1.5465"
               height="39.412998"
               style="fill:#fcc052"
               id="rect3033" />
            <rect
               x="-741.57001"
               y="157.57001"
               width="1.5465"
               height="39.139999"
               style="fill:#fcc052"
               id="rect3035" />
            <rect
               x="-734.87"
               y="157.57001"
               width="1.5465"
               height="39.002998"
               style="fill:#fcc052"
               id="rect3037" />
            <rect
               x="-728.58002"
               y="157.57001"
               width="1.5465"
               height="39.139999"
               style="fill:#fcc052"
               id="rect3039" />
            <rect
               x="-721.75"
               y="157.57001"
               width="1.5465"
               height="39.412998"
               style="fill:#fcc052"
               id="rect3041" />
            <path
               style="fill:#fcc052"
               d="m -748.76,194.94 29.662,0.0683 -0.13669,2.0504 -29.252,0 z"
               id="path3043" />
            <path
               style="fill:#fcc052"
               d="m -749.71,188.37 31.439,0 -0.13668,2.1187 -30.96,0 z"
               id="path3045" />
            <path
               style="fill:#fcc052"
               d="m -750.47,181.61 33.011,0 -0.28844,2.187 -32.449,0 z"
               id="path3047" />
            <path
               style="fill:#fcc052"
               d="m -751.49,173.82 34.993,-0.13669 -0.34173,2.0504 -34.309,0 z"
               id="path3049" />
            <path
               style="fill:#fcc052"
               d="m -752.58,165.82 37.043,0.0683 -0.27338,2.187 -36.496,0 z"
               id="path3051" />
          </g>
          <path
             d="m -757.31,118.43 c 10.635,-4.4232 20.831,-6.5463 25.367,-6.5231 30.825,0.15755 45.074,-20.47 21.065,-35.888 -4.6038,9.0862 -11.744,15.327 -21.33,17.449 -15.868,3.5129 -36.441,9.5153 -25.102,24.961 z"
             style="fill:#ffaacc"
             id="path3053" />
          <path
             d="m -759.5,139.27 c -12.766,-32.092 45.188,-15.914 61.788,-38.389 22.229,15.443 15.045,35.917 -26.258,34.652 -14.836,-0.45438 -25.305,2.0649 -35.531,3.7376 z"
             style="fill:#ffaacc"
             id="path3055" />
          <path
             d="m -751.09,96.126 c -5.2804,-10.544 9.785,-16.567 21.205,-23.399 9.9712,-5.5463 5.387,-15.858 0,-8.0434 -4.2399,-3.6482 -0.8661,-8.71 3.6656,-9.4732 10.621,-0.16576 17.175,11.226 10.264,21.985 -9.3661,14.259 -23.326,13.016 -35.135,18.93 z"
             style="fill:#ffaacc"
             id="path3057" />
          <path
             d="m -749.22,91.356 c -0.59415,-2.6578 1.1304,-5.2916 3.2464,-6.7879 4.2364,-3.3384 7.8834,1.1787 3.2464,1.9183 -2.9341,0.77501 -4.1974,3.4953 -6.4928,4.8696 z"
             style="fill:#ffffff"
             id="path3059" />
          <path
             style="fill:#ffffff"
             d="m -756.46,111.56 c -0.73604,-3.2926 1.4003,-6.5554 4.0217,-8.4091 5.2481,-4.1356 9.7661,1.4602 4.0217,2.3765 -3.6348,0.9601 -5.1998,4.33 -8.0434,6.0326 z"
             id="path3061" />
          <path
             d="m -756.94,133.05 c -0.73604,-3.2926 1.4003,-6.5554 4.0217,-8.4091 5.2481,-4.1356 9.7661,1.4602 4.0217,2.3765 -3.6348,0.9601 -5.1998,4.33 -8.0434,6.0326 z"
             style="fill:#ffffff"
             id="path3063" />
        </g>
      </g>
    </g>
  </g>
  <metadata
     id="metadata8254">
    <rdf:RDF>
      <cc:Work>
        <dc:format>image/svg+xml</dc:format>
        <dc:type
           rdf:resource="http://purl.org/dc/dcmitype/StillImage" />
        <cc:license
           rdf:resource="http://creativecommons.org/publicdomain/zero/1.0/" />
        <dc:publisher>
          <cc:Agent
             rdf:about="http://openclipart.org/">
            <dc:title>Openclipart</dc:title>
          </cc:Agent>
        </dc:publisher>
        <dc:title></dc:title>
      </cc:Work>
      <cc:License
         rdf:about="http://creativecommons.org/publicdomain/zero/1.0/">
        <cc:permits
           rdf:resource="http://creativecommons.org/ns#Reproduction" />
        <cc:permits
           rdf:resource="http://creativecommons.org/ns#Distribution" />
        <cc:permits
           rdf:resource="http://creativecommons.org/ns#DerivativeWorks" />
      </cc:License>
    </rdf:RDF>
  </metadata>
</svg>
